<svg width="24" height="24" viewBox="0 0 24 24" fill="none" xmlns="http://www.w3.org/2000/svg">
<path fill-rule="evenodd" clip-rule="evenodd" d="M11.42 4.35645H11.97C12.7825 4.35645 13.5604 4.68255 14.1332 5.26116C14.7057 5.83959 15.0264 6.62292 15.0264 7.43853C15.0264 8.2285 14.7256 8.98817 14.1864 9.56073L17.8487 9.56072V10.1107C17.8487 10.9231 17.5226 11.7011 16.944 12.2739C16.3656 12.8464 15.5823 13.1671 14.7666 13.1671C13.951 13.1671 13.1677 12.8464 12.5893 12.2739C12.5676 12.2524 12.5463 12.2307 12.5254 12.2087L12.5254 15.8627H11.9754C11.163 15.8627 10.385 15.5366 9.81228 14.958C9.23973 14.3796 8.91908 13.5962 8.91908 12.7806C8.91908 11.9906 9.21988 11.231 9.759 10.6584L6.12744 10.6584V10.1084C6.12744 9.296 6.45354 8.51801 7.03216 7.94528C7.61058 7.37274 8.39391 7.05209 9.20953 7.05209C10.0251 7.05209 10.8085 7.37274 11.3869 7.94528C11.398 7.95631 11.4091 7.96741 11.42 7.97859L11.42 4.35645ZM11.1117 9.55842C11.0194 9.24758 10.8494 8.96102 10.6131 8.72707C10.2418 8.35955 9.73702 8.15209 9.20953 8.15209C8.68204 8.15209 8.17728 8.35955 7.80599 8.72707C7.56963 8.96102 7.39966 9.24758 7.30739 9.55842L11.1117 9.55842ZM11.4254 10.8785C11.1146 10.9707 10.828 11.1407 10.5941 11.3771C10.2265 11.7484 10.0191 12.2531 10.0191 12.7806C10.0191 13.3081 10.2265 13.8129 10.5941 14.1841C10.828 14.4205 11.1146 14.5905 11.4254 14.6827L11.4254 10.8785ZM12.8645 10.6607C12.9568 10.9716 13.1267 11.2581 13.3631 11.4921C13.7344 11.8596 14.2392 12.0671 14.7666 12.0671C15.2941 12.0671 15.7989 11.8596 16.1702 11.4921C16.4065 11.2581 16.5765 10.9716 16.6688 10.6607L12.8645 10.6607ZM12.52 9.34068C12.8309 9.24841 13.1174 9.07844 13.3514 8.84207C13.7189 8.47078 13.9264 7.96602 13.9264 7.43853C13.9264 6.91105 13.7189 6.40628 13.3514 6.03499C13.1174 5.79863 12.8309 5.62866 12.52 5.53639L12.52 9.34068Z" fill="#DC2626"/>
<path fill-rule="evenodd" clip-rule="evenodd" d="M11.9999 3.15068C8.21503 3.15068 5.14678 6.21893 5.14678 10.0038C5.14678 13.5809 7.88744 16.5179 11.3835 16.8296H12.6163C16.1124 16.5179 18.853 13.5809 18.853 10.0038C18.853 6.21893 15.7848 3.15068 11.9999 3.15068ZM14.4213 17.6866C17.6857 16.6587 20.053 13.6077 20.053 10.0038C20.053 5.55619 16.4475 1.95068 11.9999 1.95068C7.55228 1.95068 3.94678 5.55619 3.94678 10.0038C3.94678 13.6126 6.32059 16.6671 9.59195 17.6908L8.71401 18.9272H7.59165C6.70799 18.9272 5.99165 19.6436 5.99165 20.5272V22.0488H18.1224V20.5272C18.1224 19.6436 17.406 18.9272 16.5224 18.9272H15.3134L14.4213 17.6866ZM11.3315 18.0296C11.5519 18.0477 11.7748 18.0569 11.9999 18.0569C12.225 18.0569 12.4479 18.0477 12.6683 18.0296H13.1899L13.8354 18.9272H10.1857L10.8231 18.0296H11.3315ZM7.59165 20.1272C7.37073 20.1272 7.19165 20.3063 7.19165 20.5272V20.8488H16.9224V20.5272C16.9224 20.3063 16.7433 20.1272 16.5224 20.1272H7.59165Z" fill="#090D14"/>
</svg>
