<svg width="24" height="24" viewBox="0 0 24 24" fill="none" xmlns="http://www.w3.org/2000/svg">
<path d="M18.552 6.34622C18.8487 6.57517 19.1469 6.65252 19.4267 6.65252C19.7838 6.65252 20.1106 6.52641 20.3645 6.42844C20.8106 6.25633 20.928 6.2425 21.0625 6.34622C21.3214 6.54619 21.6887 6.49208 21.8828 6.22558C22.077 5.95915 22.0245 5.58117 21.7656 5.38137C21.0904 4.86022 20.4059 5.12431 19.953 5.29915C19.5071 5.4713 19.3896 5.48521 19.2553 5.38137C18.9964 5.18156 18.6291 5.23555 18.4349 5.50193C18.2407 5.76839 18.2931 6.14638 18.552 6.34622Z" fill="#DC2626"/>
<path d="M21.7655 7.9648C21.0903 7.44358 20.4059 7.70779 19.953 7.88263C19.5069 8.05478 19.3896 8.06853 19.2552 7.96484C18.9964 7.76496 18.6291 7.81895 18.4349 8.08537C18.2407 8.35179 18.2932 8.72977 18.552 8.92962C18.8486 9.15861 19.147 9.23604 19.4268 9.236C19.7838 9.236 20.1106 9.10989 20.3645 9.01191C20.8106 8.83973 20.928 8.8259 21.0625 8.92966C21.3214 9.12958 21.6887 9.07551 21.8828 8.80901C22.0769 8.54259 22.0244 8.16461 21.7655 7.9648Z" fill="#DC2626"/>
<path d="M21.7655 10.5486C21.0903 10.0274 20.4059 10.2916 19.953 10.4664C19.5071 10.6385 19.3896 10.6525 19.2552 10.5486C18.9963 10.3488 18.6291 10.4028 18.4349 10.6692C18.2407 10.9357 18.2932 11.3136 18.552 11.5135C18.8487 11.7424 19.147 11.8198 19.4268 11.8198C19.7838 11.8198 20.1106 11.6937 20.3645 11.5957C20.8106 11.4236 20.928 11.4098 21.0625 11.5135C21.3214 11.7134 21.6887 11.6593 21.8828 11.3928C22.0769 11.1264 22.0244 10.7484 21.7655 10.5486Z" fill="#DC2626"/>
<path d="M16.5112 4.32258C12.8251 3.54317 8.69457 3 7.293 3C4.37443 3 2 5.4437 2 8.44742C2 10.5418 3.15458 12.3636 4.84287 13.2749L5.37115 18.8484C5.48369 20.0348 6.51749 21 7.67566 21H8.93086C9.51563 21 10.0474 20.7621 10.4282 20.33C10.809 19.898 10.9875 19.3302 10.9307 18.7313L10.445 13.6072C12.2329 13.3729 14.4421 13.0099 16.5112 12.5723C16.7837 12.5147 16.9792 12.2679 16.9792 11.9816V4.91331C16.9793 4.62703 16.7837 4.38023 16.5112 4.32258ZM9.76446 18.8483C9.78872 19.1044 9.71622 19.3428 9.56032 19.5196C9.40442 19.6965 9.18087 19.7939 8.9309 19.7939H7.6757C7.11335 19.7939 6.59218 19.3072 6.53749 18.7312L6.06495 13.7465C6.45925 13.8433 6.87034 13.8948 7.293 13.8948C7.72621 13.8948 8.4202 13.8429 9.28098 13.7482L9.76446 18.8483ZM15.8074 11.4882C12.1502 12.2346 8.43207 12.6888 7.293 12.6888C5.02061 12.6888 3.17188 10.7861 3.17188 8.44742C3.17188 6.10873 5.02061 4.20607 7.293 4.20607C8.43196 4.20607 12.15 4.66024 15.8074 5.40675V11.4882Z" fill="#090D14"/>
<path d="M4.5106 8.44753C4.5106 10.0266 5.75885 11.3113 7.29311 11.3113C8.82742 11.3113 10.0757 10.0266 10.0757 8.44753C10.0757 6.8685 8.82742 5.58384 7.29311 5.58384C5.75885 5.5838 4.5106 6.86846 4.5106 8.44753ZM8.90383 8.44753C8.90383 9.36157 8.18124 10.1052 7.29311 10.1052C6.40502 10.1052 5.68248 9.36157 5.68248 8.44753C5.68248 7.53353 6.40502 6.78991 7.29311 6.78991C8.18124 6.78987 8.90383 7.53349 8.90383 8.44753Z" fill="#090D14"/>
</svg>
