<svg width="24" height="24" viewBox="0 0 24 24" fill="none" xmlns="http://www.w3.org/2000/svg">
<path d="M20.5137 20.03C20.2761 20.125 19.5871 20.1725 19.4921 20.1725H18.3754C18.1616 20.1725 17.9953 20.0062 17.9953 19.7924V13.1162C17.9953 12.9024 18.1616 12.7361 18.3754 12.7361H19.0882C18.7081 9.19608 15.7145 6.41634 12.0794 6.41634C8.44438 6.41634 5.42705 9.19608 5.07067 12.7361H5.78343C5.99725 12.7361 6.16356 12.9024 6.16356 13.1162V19.7924C6.16356 20.0062 5.99725 20.1725 5.78343 20.1725H4.66678C2.62354 20.1725 0.960449 18.5094 0.960449 16.4662C0.960449 14.6549 1.69696 13.9003 2.81361 13.2588V13.1162C2.81361 8.00816 6.97135 3.82666 12.1032 3.82666C17.235 3.82666 21.3928 7.9844 21.3928 13.1162V13.2588C22.5094 13.9003 23.2459 15.0882 23.2459 16.4662C23.2459 17.8442 22.1055 19.6023 20.5375 20.03H20.5137ZM5.02315 13.4964H4.64302C3.00368 13.4964 1.6732 14.8268 1.6732 16.4662C1.6732 18.1055 3.00368 19.436 4.64302 19.436H5.37953V13.4964H4.9994H5.02315ZM19.8485 12.7836C20.1098 12.8074 20.3712 12.8549 20.6325 12.9262C20.5137 8.31702 16.7361 4.58693 12.1032 4.58693C7.47028 4.58693 3.66892 8.31702 3.57389 12.9262C3.81147 12.8549 4.07281 12.8074 4.35792 12.7836C4.71429 8.81594 8.06424 5.70358 12.1269 5.70358C16.1897 5.70358 19.5158 8.81594 19.896 12.7836H19.8485ZM22.4857 16.4662C22.4857 14.8268 21.1552 13.4964 19.5158 13.4964H18.7793V19.436H19.5158C21.1552 19.436 22.4857 18.1055 22.4857 16.4662Z" fill="#090D14"/>
<path fill-rule="evenodd" clip-rule="evenodd" d="M20.5373 20.0298C22.1053 19.6021 23.2458 17.844 23.2458 16.466C23.2458 15.088 22.5092 13.9001 21.3926 13.2586V13.1161C21.3926 7.98422 17.2349 3.82648 12.103 3.82648C6.97118 3.82648 2.81344 8.00798 2.81344 13.1161V13.2586C1.69679 13.9001 0.960273 14.6548 0.960273 16.466C0.960273 18.5092 2.62337 20.1723 4.6666 20.1723H5.78325C5.99708 20.1723 6.16339 20.006 6.16339 19.7922V13.1161C6.16339 12.9022 5.99708 12.7359 5.78325 12.7359H5.0705C5.07656 12.6757 5.08339 12.6157 5.09098 12.5559C5.52971 9.10213 8.50604 6.41616 12.0793 6.41616C15.6525 6.41616 18.6058 9.10213 19.0664 12.5559C19.0743 12.6157 19.0815 12.6757 19.088 12.7359H18.3753C18.1614 12.7359 17.9951 12.9022 17.9951 13.1161V19.7922C17.9951 20.006 18.1614 20.1723 18.3753 20.1723H19.4919C19.5869 20.1723 20.2759 20.1248 20.5135 20.0298H20.5373ZM20.5454 20.2098C20.3964 20.2606 20.1626 20.2941 19.9691 20.3156C19.7535 20.3396 19.5496 20.3523 19.4919 20.3523H18.3753C18.062 20.3523 17.8151 20.1054 17.8151 19.7922V13.1161C17.8151 12.8028 18.062 12.5559 18.3753 12.5559H18.8847C18.4255 9.20088 15.5519 6.59616 12.0793 6.59616C8.60529 6.59616 5.71003 9.20219 5.27247 12.5559H5.78325C6.09649 12.5559 6.34339 12.8028 6.34339 13.1161V19.7922C6.34339 20.1054 6.09649 20.3523 5.78325 20.3523H4.6666C2.52396 20.3523 0.780273 18.6087 0.780273 16.466C0.780273 15.5353 0.969826 14.857 1.31744 14.3252C1.64524 13.8237 2.10318 13.4687 2.63344 13.1552V13.1161C2.63344 7.90887 6.87147 3.64648 12.103 3.64648C17.3343 3.64648 21.5726 7.88481 21.5726 13.1161V13.156C22.6925 13.8399 23.4258 15.0589 23.4258 16.466C23.4258 17.2006 23.1237 18.0208 22.6254 18.7098C22.1265 19.3996 21.4176 19.9763 20.5846 20.2034L20.5614 20.2098H20.5454ZM19.8765 12.6034C19.4146 8.72204 16.1278 5.70341 12.1268 5.70341C8.06407 5.70341 4.71412 8.81577 4.35774 12.7834C4.14337 12.8013 3.94242 12.8326 3.75491 12.8773C3.69305 12.8921 3.63265 12.9083 3.57371 12.926C3.57501 12.8628 3.57701 12.7997 3.57971 12.7368C3.77318 8.21522 7.53365 4.58676 12.103 4.58676C16.6727 4.58676 20.4103 8.21577 20.6254 12.7379C20.6284 12.8004 20.6307 12.8631 20.6323 12.926C20.5719 12.9095 20.5114 12.8943 20.4509 12.8803C20.327 12.8518 20.2031 12.8285 20.0792 12.8106C20.0181 12.8018 19.9569 12.7943 19.8958 12.788C19.888 12.7872 19.8801 12.7864 19.8723 12.7857C19.8643 12.7849 19.8563 12.7842 19.8483 12.7834H19.8958C19.8901 12.7239 19.8837 12.6645 19.8767 12.6053C19.8766 12.6047 19.8766 12.6041 19.8765 12.6034ZM20.0603 12.6262C19.6076 8.63498 16.236 5.52341 12.1268 5.52341C8.02126 5.52341 4.62702 8.62995 4.1932 12.6189C4.0435 12.6361 3.89973 12.6601 3.76201 12.6909C3.97869 8.29048 7.64822 4.76676 12.103 4.76676C16.5578 4.76676 20.2061 8.29106 20.443 12.694C20.3155 12.666 20.188 12.6434 20.0603 12.6262ZM4.64284 13.6762C3.10292 13.6762 1.85303 14.9261 1.85303 16.466C1.85303 18.0059 3.10292 19.2558 4.64284 19.2558H5.19936V13.6762H4.64284ZM5.37935 13.4962V19.4358H4.64284C3.00351 19.4358 1.67303 18.1053 1.67303 16.466C1.67303 14.8267 3.00351 13.4962 4.64284 13.4962H5.37935ZM22.3055 16.466C22.3055 14.9261 21.0556 13.6762 19.5157 13.6762H18.9592V19.2558H19.5157C21.0556 19.2558 22.3055 18.0059 22.3055 16.466ZM19.5157 19.4358C21.155 19.4358 22.4855 18.1053 22.4855 16.466C22.4855 14.8267 21.155 13.4962 19.5157 13.4962H18.7792V19.4358H19.5157Z" fill="#090D14"/>
<path d="M13.815 18.9523C13.5788 18.9523 13.3875 18.761 13.3875 18.5248V14.2493C13.3875 14.013 13.5788 13.8217 13.815 13.8217C14.0512 13.8217 14.2426 14.013 14.2426 14.2493V18.5248C14.2426 18.761 14.0512 18.9523 13.815 18.9523ZM15.9528 17.2421V15.9595C15.9528 15.7233 15.7614 15.5319 15.5252 15.5319C15.289 15.5319 15.0977 15.7233 15.0977 15.9595V17.2421C15.0977 17.4784 15.289 17.6697 15.5252 17.6697C15.7614 17.6697 15.9528 17.4784 15.9528 17.2421ZM12.5324 17.2421V15.5319C12.5324 15.2957 12.341 15.1044 12.1048 15.1044C11.8686 15.1044 11.6773 15.2957 11.6773 15.5319V17.2421C11.6773 17.4784 11.8686 17.6697 12.1048 17.6697C12.341 17.6697 12.5324 17.4784 12.5324 17.2421ZM10.8221 19.8074V12.9666C10.8221 12.7304 10.6308 12.5391 10.3946 12.5391C10.1584 12.5391 9.96704 12.7304 9.96704 12.9666V19.8074C9.96704 20.0437 10.1584 20.235 10.3946 20.235C10.6308 20.235 10.8221 20.0437 10.8221 19.8074ZM8.68439 14.6768C8.44817 14.6768 8.25684 14.8682 8.25684 15.1044V17.6697C8.25684 17.9059 8.44817 18.0972 8.68439 18.0972C8.92061 18.0972 9.11194 17.9059 9.11194 17.6697V15.1044C9.11194 14.8682 8.92061 14.6768 8.68439 14.6768Z" fill="#DC2626"/>
<path fill-rule="evenodd" clip-rule="evenodd" d="M9.86157 12.9664C9.86157 12.6721 10.1001 12.4336 10.3944 12.4336C10.6888 12.4336 10.9273 12.6721 10.9273 12.9664V19.8073C10.9273 20.1017 10.6888 20.3401 10.3944 20.3401C10.1001 20.3401 9.86157 20.1017 9.86157 19.8073V12.9664ZM10.3944 12.6442C10.2164 12.6442 10.0722 12.7884 10.0722 12.9664V19.8073C10.0722 19.9853 10.2164 20.1295 10.3944 20.1295C10.5725 20.1295 10.7167 19.9853 10.7167 19.8073V12.9664C10.7167 12.7884 10.5725 12.6442 10.3944 12.6442ZM13.8148 13.9269C13.6368 13.9269 13.4926 14.071 13.4926 14.2491V18.5246C13.4926 18.7027 13.6368 18.8469 13.8148 18.8469C13.9929 18.8469 14.1371 18.7027 14.1371 18.5246V14.2491C14.1371 14.071 13.9929 13.9269 13.8148 13.9269ZM13.282 14.2491C13.282 13.9547 13.5205 13.7162 13.8148 13.7162C14.1092 13.7162 14.3477 13.9547 14.3477 14.2491V18.5246C14.3477 18.819 14.1092 19.0575 13.8148 19.0575C13.5205 19.0575 13.282 18.819 13.282 18.5246V14.2491ZM8.15137 15.1042C8.15137 14.8098 8.38984 14.5714 8.68422 14.5714C8.9786 14.5714 9.21708 14.8098 9.21708 15.1042V17.6695C9.21708 17.9639 8.9786 18.2024 8.68422 18.2024C8.38984 18.2024 8.15137 17.9639 8.15137 17.6695V15.1042ZM8.68422 14.782C8.50616 14.782 8.36197 14.9261 8.36197 15.1042V17.6695C8.36197 17.8476 8.50616 17.9918 8.68422 17.9918C8.86229 17.9918 9.00647 17.8476 9.00647 17.6695V15.1042C9.00647 14.9261 8.86229 14.782 8.68422 14.782ZM11.5718 15.5318C11.5718 15.2374 11.8103 14.9989 12.1046 14.9989C12.399 14.9989 12.6375 15.2374 12.6375 15.5318V17.242C12.6375 17.5363 12.399 17.7748 12.1046 17.7748C11.8103 17.7748 11.5718 17.5363 11.5718 17.242V15.5318ZM12.1046 15.2095C11.9266 15.2095 11.7824 15.3537 11.7824 15.5318V17.242C11.7824 17.42 11.9266 17.5642 12.1046 17.5642C12.2827 17.5642 12.4269 17.42 12.4269 17.242V15.5318C12.4269 15.3537 12.2827 15.2095 12.1046 15.2095ZM14.9922 15.9593C14.9922 15.6649 15.2307 15.4265 15.5251 15.4265C15.8194 15.4265 16.0579 15.6649 16.0579 15.9593V17.242C16.0579 17.5363 15.8194 17.7748 15.5251 17.7748C15.2307 17.7748 14.9922 17.5363 14.9922 17.242V15.9593ZM15.5251 15.6371C15.347 15.6371 15.2028 15.7812 15.2028 15.9593V17.242C15.2028 17.42 15.347 17.5642 15.5251 17.5642C15.7031 17.5642 15.8473 17.42 15.8473 17.242V15.9593C15.8473 15.7812 15.7031 15.6371 15.5251 15.6371Z" fill="#DC2626"/>
</svg>
