<svg width="24" height="24" viewBox="0 0 24 24" fill="none" xmlns="http://www.w3.org/2000/svg">
<path fill-rule="evenodd" clip-rule="evenodd" d="M2.35017 5.0001C2.35017 3.53654 3.53661 2.3501 5.00017 2.3501H19.0002C20.4637 2.3501 21.6502 3.53654 21.6502 5.0001V14.8946L23.1781 19.4783C23.5342 20.5467 22.739 21.6501 21.6127 21.6501H2.38759C1.26137 21.6501 0.466124 20.5467 0.822266 19.4783L2.35017 14.8946V5.0001ZM3.46866 15.6501L2.05555 19.8894C1.98001 20.1161 2.1487 20.3501 2.38759 20.3501H21.6127C21.8516 20.3501 22.0203 20.1161 21.9448 19.8894L20.5317 15.6501H3.46866ZM20.3502 14.3501V5.0001C20.3502 4.25451 19.7458 3.6501 19.0002 3.6501H5.00017C4.25458 3.6501 3.65017 4.25451 3.65017 5.0001V14.3501H20.3502Z" fill="black"/>
<path fill-rule="evenodd" clip-rule="evenodd" d="M10.5 18.75C10.086 18.75 9.75 18.414 9.75 18C9.75 17.586 10.086 17.25 10.5 17.25H13.5C13.914 17.25 14.25 17.586 14.25 18C14.25 18.414 13.914 18.75 13.5 18.75H10.5Z" fill="#DC2626"/>
</svg>
