<svg width="24" height="24" viewBox="0 0 24 24" fill="none" xmlns="http://www.w3.org/2000/svg">
<path d="M20.0851 1H3.91493C2.85896 1 2 1.854 2 2.90388V21.0961C2 22.146 2.85896 23 3.91493 23H20.0851C21.141 23 22 22.146 22 21.0961V2.90388C22 1.854 21.141 1 20.0851 1ZM3.27662 2.90388C3.27662 2.55392 3.56294 2.26926 3.91493 2.26926H20.0851C20.4371 2.26926 20.7234 2.55392 20.7234 2.90388V5.44223H3.27662V2.90388ZM20.7234 21.0961C20.7234 21.4461 20.4371 21.7307 20.0851 21.7307H3.91493C3.56294 21.7307 3.27662 21.4461 3.27662 21.0961V6.71149H20.7234V21.0961Z" fill="#090D14"/>
<path d="M19.2499 3H17.7501C17.3359 3 17 3.33582 17 3.75C17 4.16418 17.3359 4.5 17.7501 4.5H19.2499C19.6641 4.5 20 4.16418 20 3.75C20 3.33582 19.6641 3 19.2499 3Z" fill="#090D14"/>
<path d="M6 14C6 17.3084 8.69149 20 11.9999 20C15.3085 20 18 17.3084 18 14C18 13.839 17.9934 13.6794 17.981 13.5216C17.981 13.5208 17.9808 13.52 17.9808 13.5193C17.735 10.4349 15.1466 8 11.9999 8C8.85336 8 6.26496 10.4349 6.01921 13.5193C6.01904 13.52 6.01904 13.5208 6.01904 13.5216C6.00657 13.6794 6 13.839 6 14ZM11.9999 18.7586C9.48261 18.7586 7.41593 16.7937 7.25209 14.3173C7.38605 14.3725 7.50474 14.4454 7.64018 14.5286C8.00627 14.754 8.46215 15.0346 9.31023 15.0346C10.1583 15.0346 10.614 14.7542 10.9803 14.5288C11.2838 14.342 11.503 14.207 11.9998 14.207C12.4965 14.207 12.7158 14.342 13.0194 14.5288C13.3856 14.754 13.8415 15.0346 14.6896 15.0346C15.5377 15.0346 15.9936 14.7542 16.3598 14.5288C16.4953 14.4454 16.614 14.3725 16.7477 14.3173C16.5841 16.7937 14.5174 18.7586 11.9999 18.7586ZM11.9999 9.2414C14.2966 9.2414 16.2185 10.8768 16.6622 13.0442C16.2428 13.1437 15.9553 13.32 15.7092 13.4714C15.4057 13.6582 15.1864 13.7932 14.6896 13.7932C14.1928 13.7932 13.9735 13.6582 13.67 13.4714C13.3037 13.246 12.848 12.9654 11.9998 12.9654C11.1517 12.9654 10.696 13.246 10.3297 13.4714C10.0262 13.6582 9.80683 13.7932 9.31023 13.7932C8.81347 13.7932 8.59414 13.6582 8.2906 13.4714C8.04452 13.3199 7.75723 13.1436 7.33778 13.0442C7.78152 10.8768 9.70341 9.2414 11.9999 9.2414Z" fill="#DC2626"/>
</svg>
