<svg width="24" height="24" viewBox="0 0 24 24" fill="none" xmlns="http://www.w3.org/2000/svg">
<path fill-rule="evenodd" clip-rule="evenodd" d="M5.12403 22.9414C4.95179 22.9414 4.78828 22.8656 4.67695 22.7342C4.56562 22.6028 4.51775 22.429 4.54607 22.2591L5.22592 18.18C5.37661 17.276 6.15884 16.6133 7.07541 16.6133H7.5459V14.7958C6.42446 13.0516 5.82716 11.0206 5.82716 8.94445V7.09886L3.81453 4.6837C3.66898 4.50904 3.6376 4.26595 3.73404 4.06006C3.83047 3.85418 4.0373 3.72266 4.26466 3.72266H5.82716V3.36328C5.82716 2.09046 6.85896 1.05859 8.13184 1.05859H14.1475C15.4203 1.05859 16.4522 2.09046 16.4522 3.36328V3.72266H18.6248C19.5609 3.72266 20.3199 4.48152 20.3199 5.4177C20.3199 5.59993 20.2903 5.78112 20.2329 5.95371L18.8238 10.1809C18.5931 10.873 17.9454 11.3398 17.2158 11.3398H16.1837C15.9062 12.562 15.4173 13.7322 14.7334 14.7958V16.6133H15.2039C16.1205 16.6133 16.9027 17.276 17.0534 18.18L17.7332 22.2591C17.7616 22.429 17.7137 22.6028 17.6024 22.7342C17.491 22.8656 17.3275 22.9414 17.1553 22.9414H5.12403ZM13.5615 16.6133H8.71777V15.207H13.5615V16.6133ZM14.1475 17.7852H15.2039C15.5476 17.7852 15.841 18.0337 15.8975 18.3727L16.4636 21.7695H5.81571L6.38185 18.3727C6.43836 18.0337 6.73171 17.7852 7.07541 17.7852H8.13184H14.1475ZM13.8279 14.0352H8.45142C7.50319 12.5086 6.99903 10.7456 6.99903 8.94445V6.88672C6.99903 6.74965 6.95097 6.61691 6.86322 6.51161L5.51566 4.89453H6.41309H15.2803V8.94445C15.2803 9.51956 15.2289 10.0908 15.128 10.6517C14.9131 11.8474 14.4734 12.9961 13.8279 14.0352ZM16.3828 10.168C16.4288 9.76313 16.4522 9.35467 16.4522 8.94445L16.4522 4.89453H18.6248C18.9137 4.89453 19.148 5.12876 19.148 5.4177C19.148 5.47369 19.1389 5.5296 19.1212 5.58312L17.7121 9.81023C17.6409 10.0239 17.4409 10.168 17.2158 10.168H16.3828ZM6.99903 3.72266H15.2803V3.36328C15.2803 2.73765 14.7731 2.23047 14.1475 2.23047H8.13184C7.50619 2.23047 6.99903 2.73765 6.99903 3.36328V3.72266Z" fill="#090D14"/>
<path d="M11.7852 19.7773C11.7852 20.1333 11.4966 20.4219 11.1406 20.4219C10.7847 20.4219 10.4961 20.1333 10.4961 19.7773C10.4961 19.4214 10.7847 19.1328 11.1406 19.1328C11.4966 19.1328 11.7852 19.4214 11.7852 19.7773Z" fill="#DC2626"/>
<path d="M14.3633 19.7773C14.3633 20.1333 14.0747 20.4219 13.7188 20.4219C13.3628 20.4219 13.0742 20.1333 13.0742 19.7773C13.0742 19.4214 13.3628 19.1328 13.7188 19.1328C14.0747 19.1328 14.3633 19.4214 14.3633 19.7773Z" fill="#DC2626"/>
<path d="M9.20703 19.7773C9.20703 20.1333 8.91845 20.4219 8.5625 20.4219C8.20655 20.4219 7.91797 20.1333 7.91797 19.7773C7.91797 19.4214 8.20655 19.1328 8.5625 19.1328C8.91845 19.1328 9.20703 19.4214 9.20703 19.7773Z" fill="#DC2626"/>
</svg>
