<svg width="24" height="24" viewBox="0 0 24 24" fill="none" xmlns="http://www.w3.org/2000/svg">
<path d="M13.6643 3.62294C13.6637 3.27838 13.384 2.99948 13.0394 3L10.9599 3.00313C10.6153 3.00365 10.3364 3.28339 10.3369 3.62795C10.3374 3.9725 10.6172 4.2514 10.9617 4.25089L13.0413 4.24775C13.3859 4.24724 13.6648 3.9675 13.6643 3.62294Z" fill="#DC2626"/>
<path fill-rule="evenodd" clip-rule="evenodd" d="M7 20.7L17 20.7C17.3866 20.7 17.7 20.3866 17.7 20L17.7 3C17.7 2.6134 17.3866 2.3 17 2.3L7 2.3C6.6134 2.3 6.3 2.6134 6.3 3L6.3 20C6.3 20.3866 6.6134 20.7 7 20.7ZM17 22C18.1046 22 19 21.1046 19 20L19 3C19 1.89543 18.1046 0.999998 17 0.999998L7 0.999999C5.89543 0.999999 5 1.89543 5 3L5 20C5 21.1046 5.89543 22 7 22L17 22Z" fill="#090D14"/>
</svg>
