<svg width="60" height="60" viewBox="0 0 60 60" fill="none" xmlns="http://www.w3.org/2000/svg">
<path d="M58.1848 15.2177C56.611 9.41935 50.5807 3.389 44.7823 1.8152C41.2281 0.928106 36.4645 0.0152341 29.9994 0C23.5355 0.0164059 18.7719 0.928106 15.2177 1.8152C9.41935 3.39017 3.389 9.41935 1.8152 15.2177C0.928107 18.7719 0.0164059 23.5355 0 29.9994C0.0164059 36.4645 0.928107 41.2281 1.8152 44.7823C3.389 50.5806 9.41935 56.6098 15.2177 58.1848C18.7719 59.0719 23.5378 59.9836 29.9994 60C36.4645 59.9836 41.2281 59.0719 44.7823 58.1848C50.5807 56.6098 56.611 50.5806 58.1848 44.7823C59.0719 41.2281 59.9836 36.4622 60 29.9994C59.9836 23.5355 59.0719 18.7719 58.1848 15.2177Z" fill="white"/>
<path d="M20.2589 43.9524C22.2378 43.3527 23.3558 41.2623 22.7561 39.2834C22.1564 37.3045 20.0659 36.1864 18.087 36.7862C16.1081 37.3859 14.9901 39.4763 15.5898 41.4552C16.1895 43.4341 18.2799 44.5522 20.2589 43.9524Z" fill="url(#paint0_linear_5692_295518)"/>
<path d="M40.6308 44.1239C42.6986 44.1239 44.3749 42.4476 44.3749 40.3798C44.3749 38.312 42.6986 36.6357 40.6308 36.6357C38.563 36.6357 36.8867 38.312 36.8867 40.3798C36.8867 42.4476 38.563 44.1239 40.6308 44.1239Z" fill="url(#paint1_linear_5692_295518)"/>
<path d="M49.4215 27.9623C48.32 26.0299 47.0661 24.1877 45.6716 22.4546C44.3544 20.8245 42.3822 19.8612 40.2869 19.8249C39.0377 19.805 37.812 19.7933 36.8885 19.7933H36.8792C36.4784 17.7753 34.7933 16.2637 32.7437 16.082C31.3996 15.9648 26.1286 15.877 23.6033 15.877C21.0779 15.877 15.8081 15.9637 14.4628 16.082C12.2257 16.2801 10.4539 18.0519 10.2559 20.289C10.1387 21.6331 10.0508 25.4357 10.0508 27.9599C10.0508 30.4841 10.1363 34.2879 10.2559 35.6309C10.4223 37.5058 11.7054 39.0937 13.5042 39.6491C13.9085 36.5262 16.7667 34.3231 19.8897 34.7262C22.6037 35.0777 24.6849 37.3066 24.8489 40.0382C26.5399 40.0253 28.7348 39.9902 30.4293 39.9409C31.7816 39.9831 33.462 40.0148 34.9374 40.0312C35.1296 36.8883 37.8331 34.4965 40.976 34.6887C43.7275 34.8563 45.9645 36.9691 46.2891 39.7066C48.1875 39.2156 49.5703 37.582 49.7426 35.6297C49.8457 34.4696 49.923 32.209 49.943 29.9896C49.95 29.2794 49.7707 28.581 49.4215 27.9623ZM45.627 29.1552H37.1487V27.9587C37.1487 26.2197 37.1088 23.8737 37.0444 22.1428C37.9315 22.1428 39.0846 22.1546 40.2424 22.1733C41.6427 22.1967 42.9611 22.8401 43.84 23.9311C44.7868 25.1076 45.6645 26.3392 46.4684 27.6177C46.7637 28.0853 46.6243 28.704 46.1567 29.0005C45.9985 29.1013 45.8145 29.1552 45.627 29.1552Z" fill="url(#paint2_linear_5692_295518)"/>
<defs>
<linearGradient id="paint0_linear_5692_295518" x1="22.9008" y1="44.5506" x2="13.8967" y2="42.2485" gradientUnits="userSpaceOnUse">
<stop stop-color="#EF3739"/>
<stop offset="0.54" stop-color="#EF3739"/>
<stop offset="1" stop-color="#FF8C8B"/>
</linearGradient>
<linearGradient id="paint1_linear_5692_295518" x1="42.9857" y1="45.4626" x2="35.0363" y2="40.6479" gradientUnits="userSpaceOnUse">
<stop stop-color="#EF3739"/>
<stop offset="0.54" stop-color="#EF3739"/>
<stop offset="1" stop-color="#FF8C8B"/>
</linearGradient>
<linearGradient id="paint2_linear_5692_295518" x1="42.5427" y1="44.3576" x2="13.6003" y2="15.4152" gradientUnits="userSpaceOnUse">
<stop stop-color="#EF3739"/>
<stop offset="0.54" stop-color="#EF3739"/>
<stop offset="1" stop-color="#FF8C8B"/>
</linearGradient>
</defs>
</svg>
