<svg width="60" height="60" viewBox="0 0 60 60" fill="none" xmlns="http://www.w3.org/2000/svg">
<path d="M58.186 15.2177C56.6122 9.41934 50.5818 3.39017 44.7835 1.8152C41.2281 0.928106 36.4657 0.0152341 30.0006 0C23.5355 0.0164059 18.7731 0.928106 15.2177 1.8152C9.42052 3.39017 3.39017 9.41934 1.8152 15.2177C0.929279 18.7719 0.0164059 23.5355 0 29.9994C0.0164059 36.4645 0.928107 41.2269 1.8152 44.7823C3.39017 50.5807 9.41935 56.6098 15.2177 58.1848C18.7731 59.0719 23.5355 59.9836 30.0006 60C36.4645 59.9836 41.2281 59.0719 44.7835 58.1848C50.5818 56.6098 56.611 50.5807 58.186 44.7823C59.0731 41.2281 59.9848 36.4645 60.0012 29.9994C59.9848 23.5343 59.0731 18.7719 58.186 15.2165V15.2177Z" fill="white"/>
<path fill-rule="evenodd" clip-rule="evenodd" d="M47.7055 31.5813C46.1411 25.6318 41.6939 20.9139 46.1669 16.5347C46.5817 16.1292 46.6637 15.4859 46.3684 14.9843L44.204 11.3106C43.8782 10.7586 43.1927 10.5371 42.6161 10.8078C38.3049 12.8351 33.8976 12.623 30.2027 10.1387H30.2004C30.0808 10.0555 29.9238 10.0555 29.8031 10.1375H29.8008C26.1059 12.6242 21.6986 12.8351 17.3873 10.8078C16.8108 10.5371 16.1253 10.7586 15.7995 11.3106L13.6351 14.9843C13.3398 15.4859 13.4218 16.1281 13.8366 16.5347C18.3096 20.9139 13.8624 25.6318 12.298 31.5813C10.4617 38.2444 13.6808 42.8568 17.7987 45.0868C21.647 47.1399 26.3555 47.2032 29.3191 49.6735C29.7164 50.0051 30.2859 50.0051 30.6832 49.6735C33.6468 47.2021 38.3553 47.1399 42.2048 45.0868C46.3227 42.8568 49.5418 38.2444 47.7055 31.5813Z" fill="url(#paint0_linear_5692_295527)"/>
<path fill-rule="evenodd" clip-rule="evenodd" d="M30.0002 39.9565C24.5007 39.9565 20.043 35.4987 20.043 29.9992C20.043 24.4997 24.5007 20.042 30.0002 20.042C35.4997 20.042 39.9574 24.4997 39.9574 29.9992C39.9574 35.4987 35.4997 39.9565 30.0002 39.9565Z" fill="url(#paint1_linear_5692_295527)"/>
<path d="M30.6958 24.2224C31.2524 25.0649 31.8301 25.9122 32.4149 26.7547C32.5321 26.9235 32.702 27.0489 32.8965 27.111C33.8645 27.418 34.8383 27.7297 35.8156 28.0367C36.4156 28.2277 36.6746 28.9074 36.3007 29.3691C35.6937 30.1238 35.0656 30.9042 34.4316 31.6999C34.3051 31.8593 34.2359 32.055 34.2348 32.2542C34.2336 33.2432 34.2113 34.2311 34.1691 35.2178C34.1398 35.8213 33.5281 36.303 32.9891 36.1295C32.1055 35.8448 31.202 35.5295 30.2845 35.1944C30.1005 35.1276 29.8989 35.1276 29.7138 35.1944C28.7962 35.5295 27.8927 35.8459 27.0091 36.1295C26.4701 36.303 25.8584 35.8213 25.8291 35.2178C25.7869 34.2311 25.7646 33.2432 25.7634 32.2542C25.7634 32.0562 25.6943 31.8605 25.5666 31.6999C24.9326 30.9042 24.3045 30.1238 23.6975 29.3691C23.3237 28.9086 23.5826 28.2277 24.1826 28.0367C25.1599 27.7297 26.1338 27.418 27.1017 27.111C27.2962 27.0489 27.4662 26.9235 27.5833 26.7547C28.1681 25.9122 28.747 25.0649 29.3024 24.2224C29.6446 23.7032 30.3501 23.7032 30.6923 24.2224H30.6958Z" fill="url(#paint2_linear_5692_295527)"/>
<defs>
<linearGradient id="paint0_linear_5692_295527" x1="45.247" y1="42.7865" x2="14.7577" y2="12.2973" gradientUnits="userSpaceOnUse">
<stop stop-color="#EF3739"/>
<stop offset="0.54" stop-color="#EF3739"/>
<stop offset="1" stop-color="#FF8C8B"/>
</linearGradient>
<linearGradient id="paint1_linear_5692_295527" x1="37.0419" y1="37.0409" x2="22.9597" y2="22.9588" gradientUnits="userSpaceOnUse">
<stop stop-color="#FFD2D2"/>
<stop offset="0.57" stop-color="white"/>
<stop offset="1" stop-color="white"/>
</linearGradient>
<linearGradient id="paint2_linear_5692_295527" x1="34.4211" y1="35.3268" x2="25.5795" y2="26.484" gradientUnits="userSpaceOnUse">
<stop stop-color="#EF3739"/>
<stop offset="0.54" stop-color="#EF3739"/>
<stop offset="1" stop-color="#FF8C8B"/>
</linearGradient>
</defs>
</svg>
