<svg width="60" height="60" viewBox="0 0 60 60" fill="none" xmlns="http://www.w3.org/2000/svg">
<path d="M58.1836 15.2165C56.6087 9.41935 50.5795 3.389 44.7812 1.81403C41.2269 0.928107 36.4634 0.0152341 29.9994 0C23.5343 0.0152341 18.7719 0.928107 15.2165 1.81403C9.41935 3.389 3.389 9.41818 1.81403 15.2165C0.928107 18.7719 0.0152341 23.5343 0 29.9994C0.0152341 36.4645 0.928107 41.2269 1.81403 44.7823C3.389 50.5807 9.41935 56.6098 15.2165 58.1848C18.7719 59.0707 23.5366 59.9836 29.9994 59.9988C36.4634 59.9836 41.2269 59.0707 44.7823 58.1848C50.5807 56.6098 56.6098 50.5807 58.1848 44.7823C59.0707 41.2269 59.9836 36.4622 59.9988 29.9994C59.9836 23.5343 59.0707 18.7719 58.1848 15.2165H58.1836Z" fill="white"/>
<path d="M46.111 16.6677C45.7641 15.9998 45.1876 15.4795 44.4868 15.2041C39.817 13.3924 35.2292 11.6639 30.748 10.1886C30.2945 10.0374 29.8047 10.0374 29.3512 10.1886C24.8747 11.6604 20.2834 13.3854 15.6147 15.1947C14.9948 15.4385 14.4698 15.8732 14.1159 16.4369C14.1429 16.4369 13.1562 19.5177 12.9886 26.3168C12.889 33.1135 13.7363 35.1525 13.7081 35.1549C14.1663 36.649 15.023 38.1689 16.2522 39.7157C17.6268 41.4419 19.483 43.2243 21.7248 44.9773C25.4372 47.8906 28.9106 49.6308 29.0606 49.687C29.6875 50.0011 30.4258 50.0011 31.0527 49.687C31.1992 49.6249 34.6773 47.8788 38.3873 44.9656C40.6291 43.2078 42.4888 41.429 43.8611 39.7028C45.1782 38.0482 46.0677 36.4217 46.4989 34.8279C46.4813 34.8279 47.1036 32.3284 47.018 26.6074C46.9559 23.277 46.6524 19.9548 46.111 16.6677Z" fill="url(#paint0_linear_5692_295501)"/>
<path d="M39.8009 26.1323C36.5057 29.5248 33.1214 33.0767 29.8015 36.5829C29.2566 37.1606 28.4972 37.4888 27.7027 37.4888H27.6898C26.8953 37.4806 26.1383 37.1524 25.5887 36.5794C23.8122 34.7396 22.0228 32.9045 20.2451 31.1045C19.1377 29.9971 19.1365 28.2018 20.2451 27.0944C20.2697 27.0698 20.2943 27.0464 20.3189 27.0229C21.4907 25.8991 23.3469 25.8944 24.4708 27.0476C25.5266 28.1292 26.5859 29.2178 27.6512 30.3147C30.289 27.5479 32.9362 24.7601 35.5143 22.0519C36.6088 20.8988 38.4439 20.9129 39.631 22.0519C40.8181 23.191 40.9095 24.9945 39.8021 26.1323H39.8009Z" fill="url(#paint1_linear_5692_295501)"/>
<defs>
<linearGradient id="paint0_linear_5692_295501" x1="43.3818" y1="40.3989" x2="16.7128" y2="13.7299" gradientUnits="userSpaceOnUse">
<stop stop-color="#EF3739"/>
<stop offset="0.54" stop-color="#EF3739"/>
<stop offset="1" stop-color="#FF8C8B"/>
</linearGradient>
<linearGradient id="paint1_linear_5692_295501" x1="34.8393" y1="31.5463" x2="25.3157" y2="22.0227" gradientUnits="userSpaceOnUse">
<stop stop-color="#FFD2D2"/>
<stop offset="0.57" stop-color="white"/>
<stop offset="1" stop-color="white"/>
</linearGradient>
</defs>
</svg>
