<svg width="60" height="60" viewBox="0 0 60 60" fill="none" xmlns="http://www.w3.org/2000/svg">
<path d="M58.186 15.2177C56.611 9.42052 50.5818 3.39017 44.7835 1.8152C41.2281 0.929278 36.4657 0.0164059 29.9994 0C23.5355 0.0164059 18.7731 0.929278 15.2177 1.8152C9.42052 3.39017 3.39017 9.41934 1.8152 15.2177C0.929279 18.7719 0.0164059 23.5355 0 29.9994C0.0164059 36.4645 0.929279 41.2269 1.8152 44.7823C3.39017 50.5807 9.42052 56.6098 15.2177 58.1848C18.7731 59.0707 23.5378 59.9836 30.0006 59.9988C36.4645 59.9836 41.2281 59.0707 44.7835 58.1848C50.5818 56.6098 56.611 50.5807 58.186 44.7823C59.0719 41.2269 59.9848 36.4622 60 29.9994C59.9848 23.5355 59.0719 18.7731 58.186 15.2177Z" fill="white"/>
<path d="M29.3909 47.3507C26.6101 46.1003 24.8207 43.3348 24.8207 40.2856V28.8413H27.4808C29.1554 28.8413 30.5991 27.0214 29.8772 25.5531C27.7597 21.2758 24.6742 16.9447 22.0129 12.6897C21.359 11.6151 19.9575 11.2741 18.8829 11.928C18.5724 12.1178 18.3111 12.378 18.1212 12.6897C15.4599 16.9447 12.3791 21.2758 10.2569 25.5531C9.53505 27.0214 10.9799 28.8425 12.6534 28.8413H15.3064V40.2821C15.3064 44.7668 18.9427 48.403 23.4274 48.403H29.1636C29.4683 48.403 29.7143 48.1558 29.7143 47.8523C29.7143 47.6366 29.5878 47.4398 29.3909 47.3507Z" fill="url(#paint0_linear_5692_295510)"/>
<path d="M30.6066 12.6492C33.3874 13.8996 35.1768 16.6651 35.1768 19.7143V31.1586H32.5167C30.8422 31.1586 29.3984 32.9785 30.1203 34.4468C32.2378 38.7241 35.3233 43.0552 37.9846 47.3102C38.6385 48.3848 40.04 48.7258 41.1146 48.0719C41.4251 47.8821 41.6865 47.6219 41.8763 47.3102C44.5376 43.0552 47.6184 38.7241 49.7406 34.4468C50.4625 32.9785 49.0176 31.1574 47.3442 31.1586H44.6899V19.7178C44.6876 15.2343 41.0525 11.6016 36.569 11.6016H30.8328C30.5281 11.6074 30.2867 11.8594 30.2937 12.1629C30.2984 12.3715 30.4191 12.559 30.6066 12.6492Z" fill="url(#paint1_linear_5692_295510)"/>
<defs>
<linearGradient id="paint0_linear_5692_295510" x1="34.1662" y1="43.6289" x2="9.24443" y2="18.7071" gradientUnits="userSpaceOnUse">
<stop stop-color="#EF3739"/>
<stop offset="0.54" stop-color="#EF3739"/>
<stop offset="1" stop-color="#FF8C8B"/>
</linearGradient>
<linearGradient id="paint1_linear_5692_295510" x1="49.1816" y1="40.0823" x2="22.549" y2="12.375" gradientUnits="userSpaceOnUse">
<stop stop-color="#EF3739"/>
<stop offset="0.54" stop-color="#EF3739"/>
<stop offset="1" stop-color="#FF8C8B"/>
</linearGradient>
</defs>
</svg>
