<svg width="24" height="24" viewBox="0 0 24 24" fill="none" xmlns="http://www.w3.org/2000/svg">
<path fill-rule="evenodd" clip-rule="evenodd" d="M21.1367 8.39074C21.1367 6.81693 19.8611 5.54102 18.2869 5.54102C15.0952 5.54102 9.32853 5.54102 6.13684 5.54102C4.56303 5.54102 3.28711 6.81693 3.28711 8.39074V9.69022C3.28711 10.0052 3.54207 10.2602 3.85705 10.2602H20.5667C20.8817 10.2602 21.1367 10.0052 21.1367 9.69022V8.39074ZM19.9968 8.39074V9.12027H4.427V8.39074C4.427 7.44653 5.19263 6.68091 6.13684 6.68091H18.2869C19.2315 6.68091 19.9968 7.44653 19.9968 8.39074Z" fill="#090D14"/>
<path fill-rule="evenodd" clip-rule="evenodd" d="M16.3813 5.0898C16.3813 4.53581 16.1609 4.00424 15.7692 3.61212C15.3771 3.22038 14.8455 3 14.2915 3C13.0684 3 11.3578 3 10.1347 3C9.58036 3 9.04879 3.22038 8.65704 3.61212C8.26492 4.00424 8.04492 4.53581 8.04492 5.0898V6.11114C8.04492 6.42575 8.29988 6.68109 8.61487 6.68109H15.8114C16.126 6.68109 16.3813 6.42575 16.3813 6.11114V5.0898ZM15.2414 5.0898V5.5412H9.18481V5.0898C9.18481 4.83788 9.28474 4.59623 9.46295 4.4184C9.64115 4.2402 9.88281 4.13989 10.1347 4.13989H14.2915C14.5434 4.13989 14.7851 4.2402 14.9629 4.4184C15.1411 4.59623 15.2414 4.83788 15.2414 5.0898Z" fill="#090D14"/>
<path fill-rule="evenodd" clip-rule="evenodd" d="M21.1355 9.73132C21.1465 9.57363 21.0918 9.41822 20.9839 9.30272C20.876 9.18683 20.7251 9.12109 20.5667 9.12109H3.85701C3.69894 9.12109 3.54772 9.18683 3.43981 9.30272C3.33228 9.41822 3.27719 9.57363 3.28858 9.73132C3.28858 9.73132 3.64955 14.827 3.87411 17.9978C3.9938 19.689 5.4008 20.9995 7.09582 20.9995H17.3279C19.0233 20.9995 20.4299 19.689 20.5496 17.9978C20.7741 14.827 21.1355 9.73132 21.1355 9.73132ZM19.9549 10.261L19.4127 17.9173C19.3352 19.0115 18.4248 19.8596 17.3279 19.8596C14.5051 19.8596 9.91895 19.8596 7.09582 19.8596C5.99886 19.8596 5.08885 19.0115 5.01134 17.9173L4.46875 10.261H19.9549Z" fill="#090D14"/>
<path fill-rule="evenodd" clip-rule="evenodd" d="M20.5941 9.12371C20.2848 9.10889 20.02 9.34409 19.9983 9.653L19.602 15.2423C19.5811 15.5398 19.7931 15.8031 20.0884 15.8464C20.2126 15.8646 20.3391 15.8738 20.4676 15.8738C22.0718 15.8738 23.4237 14.3843 23.4237 12.4974C23.4237 10.6599 22.1405 9.19818 20.5941 9.12371ZM20.7833 14.7008L21.0884 10.3932C21.7978 10.7074 22.2838 11.5445 22.2838 12.4974C22.2838 13.5818 21.6538 14.5165 20.7833 14.7008Z" fill="#090D14"/>
<path fill-rule="evenodd" clip-rule="evenodd" d="M4.42575 9.653C4.40372 9.34409 4.13888 9.10889 3.82959 9.12371C2.28314 9.19818 1 10.6599 1 12.4974C1 14.3843 2.35191 15.8738 3.9565 15.8738C4.08493 15.8738 4.21145 15.8646 4.3357 15.8464C4.63093 15.8031 4.84257 15.5398 4.82168 15.2423L4.42575 9.653ZM3.64037 14.7008C2.76987 14.5165 2.13989 13.5818 2.13989 12.4974C2.13989 11.5445 2.62586 10.7074 3.33526 10.3932L3.64037 14.7008Z" fill="#090D14"/>
<path fill-rule="evenodd" clip-rule="evenodd" d="M12.2116 12.3975C10.7419 12.3975 9.54883 13.5905 9.54883 15.0599C9.54883 16.5296 10.7419 17.7223 12.2116 17.7223C13.6809 17.7223 14.874 16.5296 14.874 15.0599C14.874 13.5905 13.6809 12.3975 12.2116 12.3975ZM12.2116 13.5374C13.0517 13.5374 13.7341 14.2194 13.7341 15.0599C13.7341 15.9003 13.0517 16.5824 12.2116 16.5824C11.3711 16.5824 10.6887 15.9003 10.6887 15.0599C10.6887 14.2194 11.3711 13.5374 12.2116 13.5374Z" fill="#DC2626"/>
</svg>
