<svg width="24" height="24" viewBox="0 0 24 24" fill="none" xmlns="http://www.w3.org/2000/svg">
<path fill-rule="evenodd" clip-rule="evenodd" d="M5.49944 10.0819C3.83236 10.9213 2.98828 11.9892 2.98828 13.0222C2.98828 14.0553 3.83236 15.1232 5.49944 15.9626C7.1376 16.7874 9.43565 17.3121 12.0013 17.3121C14.567 17.3121 16.865 16.7874 18.5032 15.9626C20.1703 15.1232 21.0144 14.0553 21.0144 13.0222C21.0144 11.9892 20.1703 10.9213 18.5032 10.0819C16.865 9.2571 14.567 8.73242 12.0013 8.73242C9.43565 8.73242 7.1376 9.2571 5.49944 10.0819ZM21.9935 12.6684C21.821 11.2156 20.5972 10.0166 18.9529 9.18874C17.148 8.27998 14.6896 7.73242 12.0013 7.73242C9.31309 7.73242 6.85462 8.27998 5.04973 9.18874C3.40545 10.0166 2.18161 11.2156 2.00916 12.6684H1.98828V16.0052C1.98828 17.5229 3.30964 18.736 5.06643 19.5406C6.86703 20.3654 9.31939 20.8623 12.0013 20.8623C14.6833 20.8623 17.1356 20.3654 18.9362 19.5406C20.693 18.736 22.0144 17.5229 22.0144 16.0052V12.6684H21.9935ZM21.0144 15.3621C20.4825 15.9419 19.7695 16.4446 18.9529 16.8558C17.148 17.7645 14.6896 18.3121 12.0013 18.3121C9.31309 18.3121 6.85462 17.7645 5.04973 16.8558C4.23312 16.4446 3.5202 15.9419 2.98828 15.3621V16.0052C2.98828 16.8937 3.79656 17.8591 5.48284 18.6315C7.12532 19.3838 9.42948 19.8623 12.0013 19.8623C14.5732 19.8623 16.8773 19.3838 18.5198 18.6315C20.2061 17.8591 21.0144 16.8937 21.0144 16.0052V15.3621ZM5.74054 12.3369C5.44025 12.612 5.34014 12.8529 5.34014 13.0481C5.34014 13.2432 5.44025 13.4841 5.74054 13.7592C6.04117 14.0346 6.50388 14.3056 7.11788 14.5434C8.34265 15.018 10.0686 15.3222 12.0001 15.3222C13.9315 15.3222 15.6575 15.018 16.8823 14.5434C17.4963 14.3056 17.959 14.0346 18.2596 13.7592C18.5599 13.4841 18.66 13.2432 18.66 13.0481C18.66 12.8529 18.5599 12.612 18.2596 12.3369C17.959 12.0615 17.4963 11.7906 16.8823 11.5527C15.6575 11.0781 13.9315 10.7739 12.0001 10.7739C10.0686 10.7739 8.34265 11.0781 7.11788 11.5527C6.50388 11.7906 6.04117 12.0615 5.74054 12.3369ZM6.75659 10.6202C8.12321 10.0907 9.97722 9.7739 12.0001 9.7739C14.0229 9.7739 15.8769 10.0907 17.2436 10.6202C17.9253 10.8843 18.5111 11.2111 18.9351 11.5995C19.3594 11.9882 19.66 12.4771 19.66 13.0481C19.66 13.619 19.3594 14.1079 18.9351 14.4966C18.5111 14.885 17.9253 15.2118 17.2436 15.4759C15.8769 16.0054 14.0229 16.3222 12.0001 16.3222C9.97722 16.3222 8.12321 16.0054 6.75659 15.4759C6.0749 15.2118 5.48906 14.885 5.06506 14.4966C4.64073 14.1079 4.34014 13.619 4.34014 13.0481C4.34014 12.4771 4.64073 11.9882 5.06506 11.5995C5.48906 11.2111 6.0749 10.8843 6.75659 10.6202ZM10.6178 11.9739C10.6716 11.9668 10.7305 11.964 10.785 11.964H13.2174C13.2719 11.964 13.3308 11.9668 13.3846 11.9739C13.4079 11.977 13.4513 11.9835 13.499 11.9984C13.5193 12.0047 13.5719 12.0219 13.6295 12.0591C13.6602 12.0789 13.8613 12.2105 13.8613 12.483V12.5424C13.8613 12.8149 13.6602 12.9465 13.6295 12.9663C13.5719 13.0035 13.5193 13.0207 13.499 13.0271C13.4513 13.042 13.4079 13.0485 13.3846 13.0515C13.3308 13.0587 13.2719 13.0614 13.2174 13.0614H10.785C10.7305 13.0614 10.6716 13.0587 10.6178 13.0515C10.5945 13.0485 10.5511 13.042 10.5034 13.0271C10.4831 13.0207 10.4305 13.0035 10.3729 12.9663C10.3422 12.9465 10.1411 12.8149 10.1411 12.5424V12.4835C10.1411 12.211 10.3422 12.0789 10.3729 12.0591C10.4305 12.0219 10.4831 12.0047 10.5034 11.9984C10.5511 11.9835 10.5945 11.977 10.6178 11.9739Z" fill="#090D14"/>
<path d="M10.2955 14.4191C10.5342 14.4191 10.7277 14.2256 10.7277 13.9869C10.7277 13.7482 10.5342 13.5547 10.2955 13.5547C10.0568 13.5547 9.86328 13.7482 9.86328 13.9869C9.86328 14.2256 10.0568 14.4191 10.2955 14.4191Z" fill="#090D14"/>
<path d="M11.9989 14.4194C12.2376 14.4194 12.4312 14.2258 12.4312 13.9871C12.4312 13.7484 12.2376 13.5549 11.9989 13.5549C11.7602 13.5549 11.5667 13.7484 11.5667 13.9871C11.5667 14.2258 11.7602 14.4194 11.9989 14.4194Z" fill="#090D14"/>
<path d="M13.7018 14.4191C13.9405 14.4191 14.134 14.2256 14.134 13.9869C14.134 13.7482 13.9405 13.5547 13.7018 13.5547C13.463 13.5547 13.2695 13.7482 13.2695 13.9869C13.2695 14.2256 13.463 14.4191 13.7018 14.4191Z" fill="#090D14"/>
<path fill-rule="evenodd" clip-rule="evenodd" d="M14.7982 2.21842C17.2278 1.42591 19.8395 2.75326 20.6313 5.18311C20.7199 5.45473 20.5714 5.74668 20.2998 5.8352C20.0282 5.92372 19.7362 5.77529 19.6477 5.50367C19.0329 3.61716 17.0054 2.58666 15.119 3.20196C14.8474 3.29055 14.5554 3.14219 14.4668 2.87059C14.3782 2.599 14.5266 2.30701 14.7982 2.21842ZM15.2959 3.98795C16.0184 3.75239 16.805 3.8135 17.4825 4.15784C18.16 4.50218 18.6729 5.10154 18.9085 5.82408C18.9971 6.09569 18.8487 6.38766 18.5771 6.47622C18.3055 6.56479 18.0135 6.4164 17.9249 6.14479C17.7744 5.6831 17.4466 5.30012 17.0137 5.0801C16.5808 4.86007 16.0782 4.82103 15.6165 4.97154C15.3449 5.06009 15.053 4.91169 14.9644 4.64008C14.8759 4.36847 15.0243 4.0765 15.2959 3.98795ZM16.6831 5.73054C16.9378 5.85998 17.0393 6.17137 16.9099 6.42604L16.8158 6.61108C16.6864 6.86575 16.375 6.96727 16.1204 6.83783C15.8657 6.7084 15.7642 6.39701 15.8936 6.14234L15.9876 5.9573C16.1171 5.70263 16.4285 5.60111 16.6831 5.73054Z" fill="#DC2626"/>
</svg>
