<svg width="24" height="24" viewBox="0 0 24 24" fill="none" xmlns="http://www.w3.org/2000/svg">
<path fill-rule="evenodd" clip-rule="evenodd" d="M4.52193 3.3C3.2696 3.3 2.25439 4.35213 2.25439 5.65V19.15C2.25439 20.4479 3.2696 21.5 4.52193 21.5H19.4781C20.7304 21.5 21.7456 20.4479 21.7456 19.15V5.65C21.7456 4.35213 20.7304 3.3 19.4781 3.3H4.52193ZM1 5.65C1 3.63416 2.57682 2 4.52193 2H19.4781C21.4232 2 23 3.63416 23 5.65V19.15C23 21.1658 21.4232 22.8 19.4781 22.8H4.52193C2.57682 22.8 1 21.1658 1 19.15V5.65Z" fill="black"/>
<path fill-rule="evenodd" clip-rule="evenodd" d="M10.1933 12.0478C10.5576 11.5011 10.769 10.8494 10.769 10.1499C10.769 9.51251 10.5935 8.9149 10.2868 8.40016L10.7742 7.92707C11.003 7.70496 11.003 7.34485 10.7742 7.12274C10.5453 6.90062 10.1743 6.90062 9.94548 7.12274L9.53914 7.51713C8.90462 6.97719 8.07322 6.6499 7.16307 6.6499C6.37887 6.6499 5.65314 6.89288 5.06142 7.3055L4.87295 7.12256C4.64412 6.90045 4.27311 6.90045 4.04427 7.12256C3.81544 7.34468 3.81544 7.70479 4.04427 7.9269L4.23271 8.1098C3.80752 8.68417 3.55713 9.38865 3.55713 10.1499C3.55713 10.9724 3.84941 11.7286 4.33865 12.326L4.04427 12.6117C3.81544 12.8338 3.81544 13.194 4.04427 13.4161C4.27311 13.6382 4.64412 13.6382 4.87295 13.4161L5.20772 13.0911C5.77102 13.4447 6.44235 13.6499 7.16307 13.6499C8.01043 13.6499 8.78953 13.3662 9.40505 12.8913L9.94548 13.4159C10.1743 13.638 10.5453 13.638 10.7742 13.4159C11.003 13.1938 11.003 12.8337 10.7742 12.6116L10.1933 12.0478ZM9.3158 11.2534C9.49538 10.924 9.59708 10.5485 9.59708 10.1499C9.59708 9.82613 9.52998 9.51758 9.40854 9.23662C9.18099 9.38323 8.87117 9.35919 8.67059 9.16451C8.44175 8.9424 8.44175 8.58228 8.67059 8.36017L8.70779 8.32406C8.28757 7.98873 7.74954 7.7874 7.16307 7.7874C6.70341 7.7874 6.27351 7.91107 5.90677 8.12601L6.14785 8.36C6.37668 8.58211 6.37668 8.94223 6.14785 9.16434C5.91901 9.38645 5.548 9.38645 5.31917 9.16434L5.07805 8.9303C4.85653 9.28632 4.72906 9.70366 4.72906 10.1499C4.72906 10.658 4.89428 11.1285 5.17542 11.5138L5.31917 11.3743C5.548 11.1522 5.91901 11.1522 6.14785 11.3743C6.37668 11.5964 6.37668 11.9565 6.14785 12.1786L6.0651 12.2589C6.39498 12.4211 6.76804 12.5124 7.16307 12.5124C7.69278 12.5124 8.18297 12.3482 8.58254 12.0693C8.44698 11.8507 8.47633 11.5627 8.67059 11.3741C8.84503 11.2048 9.10209 11.1646 9.3158 11.2534Z" fill="black"/>
<path fill-rule="evenodd" clip-rule="evenodd" d="M19.2082 12.0478C19.5724 11.5011 19.7839 10.8494 19.7839 10.1499C19.7839 9.51251 19.6083 8.9149 19.3016 8.40016L19.789 7.92707C20.0178 7.70496 20.0178 7.34485 19.789 7.12274C19.5602 6.90062 19.1892 6.90062 18.9603 7.12274L18.554 7.51713C17.9195 6.97719 17.0881 6.6499 16.1779 6.6499C15.3937 6.6499 14.668 6.89288 14.0763 7.3055L13.8878 7.12256C13.659 6.90045 13.288 6.90045 13.0591 7.12256C12.8303 7.34468 12.8303 7.70479 13.0591 7.9269L13.2476 8.1098C12.8224 8.68417 12.572 9.38865 12.572 10.1499C12.572 10.9724 12.8643 11.7286 13.3535 12.326L13.0591 12.6117C12.8303 12.8338 12.8303 13.194 13.0591 13.4161C13.288 13.6382 13.659 13.6382 13.8878 13.4161L14.2226 13.0911C14.7859 13.4447 15.4572 13.6499 16.1779 13.6499C17.0253 13.6499 17.8044 13.3662 18.4199 12.8913L18.9603 13.4159C19.1892 13.638 19.5602 13.638 19.789 13.4159C20.0178 13.1938 20.0178 12.8337 19.789 12.6116L19.2082 12.0478ZM18.3307 11.2534C18.5102 10.924 18.6119 10.5485 18.6119 10.1499C18.6119 9.82613 18.5448 9.51758 18.4234 9.23662C18.1958 9.38323 17.886 9.35919 17.6854 9.16451C17.4566 8.9424 17.4566 8.58228 17.6854 8.36017L17.7226 8.32406C17.3024 7.98873 16.7644 7.7874 16.1779 7.7874C15.7183 7.7874 15.2884 7.91107 14.9216 8.12601L15.1627 8.36C15.3915 8.58211 15.3915 8.94223 15.1627 9.16434C14.9339 9.38645 14.5629 9.38645 14.334 9.16434L14.0929 8.9303C13.8714 9.28632 13.7439 9.70366 13.7439 10.1499C13.7439 10.658 13.9091 11.1285 14.1903 11.5138L14.334 11.3743C14.5629 11.1522 14.9339 11.1522 15.1627 11.3743C15.3915 11.5964 15.3915 11.9565 15.1627 12.1786L15.08 12.2589C15.4098 12.4211 15.7829 12.5124 16.1779 12.5124C16.7076 12.5124 17.1978 12.3482 17.5974 12.0693C17.4618 11.8507 17.4912 11.5627 17.6854 11.3741C17.8599 11.2048 18.1169 11.1646 18.3307 11.2534Z" fill="black"/>
<path d="M8.38148 18.6499C8.38148 19.2022 7.94948 19.6499 7.41657 19.6499C6.88367 19.6499 6.45166 19.2022 6.45166 18.6499C6.45166 18.0976 6.88367 17.6499 7.41657 17.6499C7.94948 17.6499 8.38148 18.0976 8.38148 18.6499Z" fill="#DC2626"/>
<path d="M13.206 18.6499C13.206 19.2022 12.774 19.6499 12.2411 19.6499C11.7082 19.6499 11.2762 19.2022 11.2762 18.6499C11.2762 18.0976 11.7082 17.6499 12.2411 17.6499C12.774 17.6499 13.206 18.0976 13.206 18.6499Z" fill="#DC2626"/>
<path d="M18.0306 18.6499C18.0306 19.2022 17.5986 19.6499 17.0657 19.6499C16.5328 19.6499 16.1008 19.2022 16.1008 18.6499C16.1008 18.0976 16.5328 17.6499 17.0657 17.6499C17.5986 17.6499 18.0306 18.0976 18.0306 18.6499Z" fill="#DC2626"/>
</svg>
