<svg width="24" height="24" viewBox="0 0 24 24" fill="none" xmlns="http://www.w3.org/2000/svg">
<path fill-rule="evenodd" clip-rule="evenodd" d="M23.25 8.25C23.25 7.00736 22.2426 6 21 6H3C1.75736 6 0.75 7.00736 0.75 8.25V19.5C0.75 20.7426 1.75736 21.75 3 21.75H21C22.2426 21.75 23.25 20.7426 23.25 19.5V8.25ZM3 20.25H21C21.4142 20.25 21.75 19.9142 21.75 19.5V8.25C21.75 7.83579 21.4142 7.5 21 7.5H3C2.58579 7.5 2.25 7.83579 2.25 8.25V19.5C2.25 19.9142 2.58579 20.25 3 20.25Z" fill="#090D14"/>
<path d="M13.2761 6L16.3795 1.95479C16.5908 1.68208 16.5162 1.30331 16.2179 1.11014C15.9196 0.916969 15.5053 0.985147 15.294 1.25786L12 5.54927L8.70604 1.25786C8.49473 0.985147 8.08039 0.916969 7.78207 1.11014C7.48375 1.30331 7.40917 1.68208 7.62048 1.95479L10.7238 6H13.2761Z" fill="#090D14"/>
<path d="M16.464 13.093C16.7183 12.845 16.7183 12.437 16.464 12.189C16.2056 11.937 15.7913 11.937 15.537 12.189L13.3304 14.341L11.4396 12.497C11.3165 12.377 11.1483 12.309 10.9761 12.309C10.8038 12.309 10.6356 12.377 10.5126 12.497L7.69072 15.2489C7.43643 15.4969 7.43643 15.9049 7.69072 16.1529C7.81787 16.2769 7.98603 16.3409 8.1542 16.3409C8.32236 16.3409 8.49053 16.2769 8.61768 16.1529L10.9761 13.853L12.8669 15.6969C13.1212 15.9449 13.5396 15.9449 13.7938 15.6969L16.464 13.093Z" fill="#DC2626"/>
</svg>
