<svg width="24" height="24" viewBox="0 0 24 24" fill="none" xmlns="http://www.w3.org/2000/svg">
<path fill-rule="evenodd" clip-rule="evenodd" d="M5.88 1C4.28942 1 3 2.3133 3 3.93333V20.0667C3 21.6867 4.28942 23 5.88 23H18.12C19.7106 23 21 21.6867 21 20.0667V3.93333C21 2.3133 19.7106 1 18.12 1H5.88ZM19.56 20.0667C19.56 20.8767 18.9153 21.5333 18.12 21.5333H5.88C5.08471 21.5333 4.44 20.8767 4.44 20.0667V8.23127C4.45992 8.2329 4.48006 8.23372 4.50039 8.23372H7.00387C7.00144 8.26667 7.0002 8.29996 7.0002 8.33353C7.0002 8.47889 7.01183 8.62153 7.03421 8.76057C7.2162 9.89128 8.10911 10.7842 9.23982 10.9662C9.37887 10.9886 9.52151 11.0002 9.66686 11.0002H14.3335C14.4789 11.0002 14.6215 10.9886 14.7606 10.9662C15.8913 10.7842 16.7842 9.89128 16.9662 8.76057C16.9886 8.62153 17.0002 8.47889 17.0002 8.33353C17.0002 8.29996 16.999 8.26667 16.9965 8.23372H19.5004C19.5205 8.23372 19.5403 8.23292 19.56 8.23134V20.0667ZM19.56 6.76945V3.93333C19.56 3.12332 18.9153 2.46667 18.12 2.46667H5.88C5.08471 2.46667 4.44 3.12332 4.44 3.93333V6.76951C4.45992 6.76789 4.48006 6.76706 4.50039 6.76706H19.5004C19.5205 6.76706 19.5403 6.76786 19.56 6.76945ZM8.46686 8.23372H15.5335V8.33353C15.5335 8.99627 14.9963 9.53353 14.3335 9.53353H9.66686C9.00412 9.53353 8.46686 8.99627 8.46686 8.33353V8.23372Z" fill="#090D14"/>
<path fill-rule="evenodd" clip-rule="evenodd" d="M12.0017 14.35L11.0549 15.5828C10.6898 16.0581 10.7337 16.7304 11.1575 17.1542C11.6237 17.6204 12.3796 17.6204 12.8458 17.1542C13.2696 16.7304 13.3135 16.0581 12.9485 15.5828L12.0017 14.35ZM12.353 12.6732C12.1757 12.4423 11.8277 12.4423 11.6503 12.6732L10.0238 14.791C9.2613 15.7838 9.35304 17.1882 10.2383 18.0734C11.2122 19.0473 12.7912 19.0473 13.7651 18.0734C14.6503 17.1882 14.742 15.7838 13.9795 14.791L12.353 12.6732Z" fill="#DC2626"/>
</svg>
